solid ASCII
  facet normal 0.000000e+00 0.000000e+00 1.000000e+00
    outer loop
      vertex   -7.195464e+00 1.246291e+01 2.000000e+01
      vertex   7.195464e+00 1.246291e+01 2.000000e+01
      vertex   2.000000e+01 2.000000e+01 2.000000e+01
    endloop
  endfacet
  facet normal 0.000000e+00 0.000000e+00 1.000000e+00
    outer loop
      vertex   2.000000e+01 2.000000e+01 2.000000e+01
      vertex   7.195464e+00 1.246291e+01 2.000000e+01
      vertex   1.439093e+01 3.982826e-15 2.000000e+01
    endloop
  endfacet
  facet normal 0.000000e+00 0.000000e+00 1.000000e+00
    outer loop
      vertex   2.000000e+01 2.000000e+01 2.000000e+01
      vertex   1.439093e+01 3.982826e-15 2.000000e+01
      vertex   2.000000e+01 -2.000000e+01 2.000000e+01
    endloop
  endfacet
  facet normal 0.000000e+00 0.000000e+00 1.000000e+00
    outer loop
      vertex   2.000000e+01 -2.000000e+01 2.000000e+01
      vertex   1.439093e+01 3.982826e-15 2.000000e+01
      vertex   7.195464e+00 -1.246291e+01 2.000000e+01
    endloop
  endfacet
  facet normal 0.000000e+00 0.000000e+00 1.000000e+00
    outer loop
      vertex   2.000000e+01 -2.000000e+01 2.000000e+01
      vertex   7.195464e+00 -1.246291e+01 2.000000e+01
      vertex   -7.195464e+00 -1.246291e+01 2.000000e+01
    endloop
  endfacet
  facet normal 0.000000e+00 0.000000e+00 1.000000e+00
    outer loop
      vertex   2.000000e+01 -2.000000e+01 2.000000e+01
      vertex   -7.195464e+00 -1.246291e+01 2.000000e+01
      vertex   -1.000000e+02 -2.000000e+01 2.000000e+01
    endloop
  endfacet
  facet normal 0.000000e+00 0.000000e+00 1.000000e+00
    outer loop
      vertex   -1.000000e+02 -2.000000e+01 2.000000e+01
      vertex   -7.195464e+00 -1.246291e+01 2.000000e+01
      vertex   -1.439093e+01 4.898958e-15 2.000000e+01
    endloop
  endfacet
  facet normal 0.000000e+00 0.000000e+00 1.000000e+00
    outer loop
      vertex   -1.000000e+02 -2.000000e+01 2.000000e+01
      vertex   -1.439093e+01 4.898958e-15 2.000000e+01
      vertex   -1.000000e+02 2.000000e+01 2.000000e+01
    endloop
  endfacet
  facet normal 0.000000e+00 0.000000e+00 1.000000e+00
    outer loop
      vertex   -1.000000e+02 2.000000e+01 2.000000e+01
      vertex   -1.439093e+01 4.898958e-15 2.000000e+01
      vertex   -7.195464e+00 1.246291e+01 2.000000e+01
    endloop
  endfacet
  facet normal -0.000000e+00 0.000000e+00 1.000000e+00
    outer loop
      vertex   -1.000000e+02 2.000000e+01 2.000000e+01
      vertex   -7.195464e+00 1.246291e+01 2.000000e+01
      vertex   2.000000e+01 2.000000e+01 2.000000e+01
    endloop
  endfacet
  facet normal 8.660254e-01 5.000000e-01 -0.000000e+00
    outer loop
      vertex   -7.195464e+00 -1.246291e+01 0.000000e+00
      vertex   -1.439093e+01 4.343846e-15 0.000000e+00
      vertex   -7.195464e+00 -1.246291e+01 2.000000e+01
    endloop
  endfacet
  facet normal 8.660254e-01 5.000000e-01 -4.937435e-17
    outer loop
      vertex   -7.195464e+00 -1.246291e+01 2.000000e+01
      vertex   -1.439093e+01 4.343846e-15 0.000000e+00
      vertex   -1.439093e+01 4.898958e-15 2.000000e+01
    endloop
  endfacet
  facet normal -4.937435e-16 1.000000e+00 2.192662e-32
    outer loop
      vertex   7.195464e+00 -1.246291e+01 0.000000e+00
      vertex   -7.195464e+00 -1.246291e+01 0.000000e+00
      vertex   7.195464e+00 -1.246291e+01 2.000000e+01
    endloop
  endfacet
  facet normal -4.937435e-16 1.000000e+00 0.000000e+00
    outer loop
      vertex   7.195464e+00 -1.246291e+01 2.000000e+01
      vertex   -7.195464e+00 -1.246291e+01 0.000000e+00
      vertex   -7.195464e+00 -1.246291e+01 2.000000e+01
    endloop
  endfacet
  facet normal -8.660254e-01 5.000000e-01 1.040834e-17
    outer loop
      vertex   1.439093e+01 4.399160e-15 0.000000e+00
      vertex   7.195464e+00 -1.246291e+01 0.000000e+00
      vertex   1.439093e+01 3.982826e-15 2.000000e+01
    endloop
  endfacet
  facet normal -8.660254e-01 5.000000e-01 4.937435e-17
    outer loop
      vertex   1.439093e+01 3.982826e-15 2.000000e+01
      vertex   7.195464e+00 -1.246291e+01 0.000000e+00
      vertex   7.195464e+00 -1.246291e+01 2.000000e+01
    endloop
  endfacet
  facet normal -8.660254e-01 -5.000000e-01 3.845925e-17
    outer loop
      vertex   7.195464e+00 1.246291e+01 0.000000e+00
      vertex   1.439093e+01 4.399160e-15 0.000000e+00
      vertex   7.195464e+00 1.246291e+01 2.000000e+01
    endloop
  endfacet
  facet normal -8.660254e-01 -5.000000e-01 0.000000e+00
    outer loop
      vertex   7.195464e+00 1.246291e+01 2.000000e+01
      vertex   1.439093e+01 4.399160e-15 0.000000e+00
      vertex   1.439093e+01 3.982826e-15 2.000000e+01
    endloop
  endfacet
  facet normal 0.000000e+00 -1.000000e+00 0.000000e+00
    outer loop
      vertex   -7.195464e+00 1.246291e+01 0.000000e+00
      vertex   7.195464e+00 1.246291e+01 0.000000e+00
      vertex   -7.195464e+00 1.246291e+01 2.000000e+01
    endloop
  endfacet
  facet normal 0.000000e+00 -1.000000e+00 0.000000e+00
    outer loop
      vertex   -7.195464e+00 1.246291e+01 2.000000e+01
      vertex   7.195464e+00 1.246291e+01 0.000000e+00
      vertex   7.195464e+00 1.246291e+01 2.000000e+01
    endloop
  endfacet
  facet normal 8.660254e-01 -5.000000e-01 1.387779e-17
    outer loop
      vertex   -1.439093e+01 4.343846e-15 0.000000e+00
      vertex   -7.195464e+00 1.246291e+01 0.000000e+00
      vertex   -1.439093e+01 4.898958e-15 2.000000e+01
    endloop
  endfacet
  facet normal 8.660254e-01 -5.000000e-01 0.000000e+00
    outer loop
      vertex   -1.439093e+01 4.898958e-15 2.000000e+01
      vertex   -7.195464e+00 1.246291e+01 0.000000e+00
      vertex   -7.195464e+00 1.246291e+01 2.000000e+01
    endloop
  endfacet
  facet normal 1.000000e+00 1.776357e-16 -0.000000e+00
    outer loop
      vertex   2.000000e+01 -2.000000e+01 0.000000e+00
      vertex   2.000000e+01 2.000000e+01 0.000000e+00
      vertex   2.000000e+01 -2.000000e+01 2.000000e+01
    endloop
  endfacet
  facet normal 1.000000e+00 1.776357e-16 0.000000e+00
    outer loop
      vertex   2.000000e+01 -2.000000e+01 2.000000e+01
      vertex   2.000000e+01 2.000000e+01 0.000000e+00
      vertex   2.000000e+01 2.000000e+01 2.000000e+01
    endloop
  endfacet
  facet normal 1.480297e-16 -1.000000e+00 0.000000e+00
    outer loop
      vertex   -1.000000e+02 -2.000000e+01 0.000000e+00
      vertex   2.000000e+01 -2.000000e+01 0.000000e+00
      vertex   -1.000000e+02 -2.000000e+01 2.000000e+01
    endloop
  endfacet
  facet normal 1.480297e-16 -1.000000e+00 0.000000e+00
    outer loop
      vertex   -1.000000e+02 -2.000000e+01 2.000000e+01
      vertex   2.000000e+01 -2.000000e+01 0.000000e+00
      vertex   2.000000e+01 -2.000000e+01 2.000000e+01
    endloop
  endfacet
  facet normal -1.000000e+00 0.000000e+00 0.000000e+00
    outer loop
      vertex   -1.000000e+02 2.000000e+01 0.000000e+00
      vertex   -1.000000e+02 -2.000000e+01 0.000000e+00
      vertex   -1.000000e+02 2.000000e+01 2.000000e+01
    endloop
  endfacet
  facet normal -1.000000e+00 -0.000000e+00 0.000000e+00
    outer loop
      vertex   -1.000000e+02 2.000000e+01 2.000000e+01
      vertex   -1.000000e+02 -2.000000e+01 0.000000e+00
      vertex   -1.000000e+02 -2.000000e+01 2.000000e+01
    endloop
  endfacet
  facet normal -8.881784e-17 1.000000e+00 1.776357e-16
    outer loop
      vertex   2.000000e+01 2.000000e+01 0.000000e+00
      vertex   -1.000000e+02 2.000000e+01 0.000000e+00
      vertex   2.000000e+01 2.000000e+01 2.000000e+01
    endloop
  endfacet
  facet normal -2.960595e-17 1.000000e+00 -1.776357e-16
    outer loop
      vertex   2.000000e+01 2.000000e+01 2.000000e+01
      vertex   -1.000000e+02 2.000000e+01 0.000000e+00
      vertex   -1.000000e+02 2.000000e+01 2.000000e+01
    endloop
  endfacet
  facet normal 0.000000e+00 0.000000e+00 -1.000000e+00
    outer loop
      vertex   7.195464e+00 1.246291e+01 0.000000e+00
      vertex   2.000000e+01 2.000000e+01 0.000000e+00
      vertex   1.439093e+01 4.399160e-15 0.000000e+00
    endloop
  endfacet
  facet normal 0.000000e+00 0.000000e+00 -1.000000e+00
    outer loop
      vertex   1.439093e+01 4.399160e-15 0.000000e+00
      vertex   2.000000e+01 2.000000e+01 0.000000e+00
      vertex   2.000000e+01 -2.000000e+01 0.000000e+00
    endloop
  endfacet
  facet normal 0.000000e+00 -0.000000e+00 -1.000000e+00
    outer loop
      vertex   1.439093e+01 4.399160e-15 0.000000e+00
      vertex   2.000000e+01 -2.000000e+01 0.000000e+00
      vertex   7.195464e+00 -1.246291e+01 0.000000e+00
    endloop
  endfacet
  facet normal 0.000000e+00 -0.000000e+00 -1.000000e+00
    outer loop
      vertex   7.195464e+00 -1.246291e+01 0.000000e+00
      vertex   2.000000e+01 -2.000000e+01 0.000000e+00
      vertex   -7.195464e+00 -1.246291e+01 0.000000e+00
    endloop
  endfacet
  facet normal 0.000000e+00 -0.000000e+00 -1.000000e+00
    outer loop
      vertex   -7.195464e+00 -1.246291e+01 0.000000e+00
      vertex   2.000000e+01 -2.000000e+01 0.000000e+00
      vertex   -1.000000e+02 -2.000000e+01 0.000000e+00
    endloop
  endfacet
  facet normal -0.000000e+00 0.000000e+00 -1.000000e+00
    outer loop
      vertex   -7.195464e+00 -1.246291e+01 0.000000e+00
      vertex   -1.000000e+02 -2.000000e+01 0.000000e+00
      vertex   -1.439093e+01 4.343846e-15 0.000000e+00
    endloop
  endfacet
  facet normal -0.000000e+00 0.000000e+00 -1.000000e+00
    outer loop
      vertex   -1.439093e+01 4.343846e-15 0.000000e+00
      vertex   -1.000000e+02 -2.000000e+01 0.000000e+00
      vertex   -1.000000e+02 2.000000e+01 0.000000e+00
    endloop
  endfacet
  facet normal 0.000000e+00 0.000000e+00 -1.000000e+00
    outer loop
      vertex   -1.439093e+01 4.343846e-15 0.000000e+00
      vertex   -1.000000e+02 2.000000e+01 0.000000e+00
      vertex   -7.195464e+00 1.246291e+01 0.000000e+00
    endloop
  endfacet
  facet normal 0.000000e+00 0.000000e+00 -1.000000e+00
    outer loop
      vertex   -7.195464e+00 1.246291e+01 0.000000e+00
      vertex   -1.000000e+02 2.000000e+01 0.000000e+00
      vertex   2.000000e+01 2.000000e+01 0.000000e+00
    endloop
  endfacet
  facet normal 0.000000e+00 0.000000e+00 -1.000000e+00
    outer loop
      vertex   -7.195464e+00 1.246291e+01 0.000000e+00
      vertex   2.000000e+01 2.000000e+01 0.000000e+00
      vertex   7.195464e+00 1.246291e+01 0.000000e+00
    endloop
  endfacet
endsolid
